<svg xmlns="http://www.w3.org/2000/svg" viewBox="0 0 200 150" preserveAspectRatio="xMidYMid meet">
  <rect width="200" height="150" fill="#f3f4f6"/>
  <g transform="translate(100 65)" fill="#9ca3af" stroke="#9ca3af" stroke-width="0">
    <path d="M-22 -16 h44 a4 4 0 0 1 4 4 v24 a4 4 0 0 1 -4 4 h-44 a4 4 0 0 1 -4 -4 v-24 a4 4 0 0 1 4 -4 z" fill="none" stroke-width="2.5" stroke-linejoin="round"/>
    <circle cx="-12" cy="-6" r="4"/>
    <path d="M-26 12 l12 -12 8 8 6 -6 14 14 v-4 a4 4 0 0 0 -4 -4 z" stroke="none"/>
  </g>
  <text x="100" y="105" font-family="-apple-system, BlinkMacSystemFont, 'Hiragino Kaku Gothic ProN', sans-serif" font-size="11" fill="#9ca3af" text-anchor="middle" font-weight="500">No Image</text>
</svg>
